<svg width="112.596" height="175.558" viewBox="0 0 125 194.897"><g xmlns="http://www.w3.org/2000/svg" fill="#fff"><path d="M62.412 45.377c-9.812 0-17.793 7.978-17.793 17.79 0 9.81 7.981 17.79 17.793 17.79s17.793-7.98 17.793-17.79c0-9.809-7.981-17.79-17.793-17.79zm0 25.796c-4.413 0-8.006-3.593-8.006-8.003 0-4.413 3.593-8.009 8.006-8.009s8.008 3.598 8.008 8.009c0 4.41-3.595 8.003-8.008 8.003z"/><path d="M106.908 97.481a4.984 4.984 0 0 0-.473-.606C104.128 40.828 70.41 5.886 65.837 1.397a4.9 4.9 0 0 0-6.853 0c-4.58 4.494-38.391 39.534-40.611 95.721-.095.122-.2.228-.285.363-.893 1.41-21.79 35.102-17.511 84.001a4.885 4.885 0 0 0 4.22 4.421 4.893 4.893 0 0 0 5.242-3.146c3.495-9.419 10.44-24.364 16.835-31.956a76.51 76.51 0 0 0 7.112 12.509 4.913 4.913 0 0 0 2.84 1.936 105.836 105.836 0 0 0 13.576 2.396c1.513 9.124 3.93 17.874 7.727 24.735a4.9 4.9 0 0 0 8.566 0c3.801-6.869 6.219-15.633 7.73-24.77 4.57-.504 9.105-1.265 13.572-2.359a4.901 4.901 0 0 0 2.84-1.936 76.331 76.331 0 0 0 7.172-12.64c6.42 7.542 13.432 22.612 16.951 32.09a4.903 4.903 0 0 0 4.587 3.19c.216 0 .436-.013.655-.046a4.885 4.885 0 0 0 4.22-4.421c4.281-48.902-16.623-82.596-17.514-84.004zM10.145 158.76c1.177-16.749 5.174-30.665 8.907-40.444a158.252 158.252 0 0 0 2.407 15.773 81.637 81.637 0 0 0 1.684 6.655c-4.8 4.191-9.305 11.12-12.998 18.016zm52.267 18.12c-5.854-20.403-4.562-49.07-3.97-58.025 1.184-.442 2.63-.826 3.97-.826 1.264 0 2.745.411 3.972.858.593 9.005 1.873 37.617-3.972 57.993zm21.453-20.714c-2.68.606-5.398 1.037-8.122 1.402 2.074-20.977.3-41.063.176-42.387a4.887 4.887 0 0 0-2.485-3.823c-.572-.314-5.721-3.116-11.022-3.116-5.575 0-10.567 2.85-11.117 3.175a4.885 4.885 0 0 0-2.388 3.766c-.122 1.327-1.898 21.432.181 42.42a94.845 94.845 0 0 1-8.127-1.432c-4.787-7.215-8.12-15.297-9.915-24.044C17.958 68.384 50.786 24.998 62.414 12.01c11.629 12.988 44.46 56.374 31.372 120.116-1.8 8.74-5.134 16.824-9.92 24.039zm17.853-15.546a82.529 82.529 0 0 0 1.646-6.53 158.117 158.117 0 0 0 2.437-16.145c3.777 9.798 7.863 23.85 9.056 40.815-3.728-6.967-8.29-13.965-13.139-18.14z"/></g></svg>