<?xml version="1.0" standalone="no"?>
<!DOCTYPE svg PUBLIC "-//W3C//DTD SVG 20010904//EN"
 "http://www.w3.org/TR/2001/REC-SVG-20010904/DTD/svg10.dtd">
<svg version="1.0" xmlns="http://www.w3.org/2000/svg"
 width="260.000000pt" height="260.000000pt" viewBox="0 0 260.000000 260.000000"
 preserveAspectRatio="xMidYMid meet">
<metadata>
Created by potrace 1.14, written by Peter Selinger 2001-2017
</metadata>
<g transform="translate(0.000000,260.000000) scale(0.100000,-0.100000)"
fill="#000000" stroke="none">
<path d="M1232 2563 c-149 -147 -330 -443 -412 -678 -37 -106 -77 -256 -86
-323 -3 -26 -8 -50 -10 -53 -2 -3 -6 -48 -10 -100 -6 -81 -12 -104 -44 -169
-106 -212 -175 -448 -197 -670 -12 -129 -9 -391 5 -417 16 -29 57 -39 87 -23
13 7 31 32 40 59 48 129 191 391 213 391 4 0 17 -22 30 -48 13 -26 36 -65 51
-87 25 -37 33 -41 106 -58 136 -30 129 -26 141 -88 30 -150 89 -285 130 -295
44 -11 71 13 105 94 17 41 33 84 35 96 3 11 7 30 10 41 2 11 10 45 17 75 l12
55 50 6 c134 18 151 25 189 83 19 29 42 69 52 89 10 20 21 37 24 37 21 0 121
-175 185 -322 50 -116 65 -138 98 -138 33 0 56 20 66 57 10 33 8 356 -2 403
-3 14 -8 46 -11 71 -26 188 -96 411 -182 579 -34 68 -44 99 -48 155 -30 369
-174 740 -405 1043 -83 110 -147 172 -177 172 -14 0 -39 -15 -62 -37z m140
-220 c155 -206 262 -427 322 -665 13 -51 27 -111 30 -133 3 -22 9 -57 12 -77
11 -69 13 -113 14 -238 1 -255 -38 -457 -122 -627 -43 -86 -45 -88 -115 -98
l-43 -6 7 58 c8 71 8 375 0 461 -7 74 -16 88 -77 114 -99 43 -253 13 -281 -54
-13 -32 -18 -493 -6 -552 l6 -28 -42 7 c-23 4 -49 8 -57 9 -25 4 -108 182
-134 286 -112 452 -34 961 209 1365 64 106 183 265 199 265 7 0 42 -39 78 -87z
m-26 -1334 c8 -13 7 -381 -1 -459 -9 -96 -23 -189 -36 -251 -15 -70 -21 -59
-48 99 -22 126 -34 435 -23 574 4 42 7 47 30 50 35 4 71 -2 78 -13z m577 -139
c27 -94 33 -117 42 -175 3 -16 7 -41 10 -55 9 -50 17 -140 12 -140 -3 0 -19
24 -35 54 -17 29 -54 81 -82 115 l-51 61 15 57 c8 32 18 83 22 113 5 30 9 60
10 65 1 6 2 21 3 35 2 25 2 24 15 -5 7 -16 25 -73 39 -125z m-1199 80 c4 -30
15 -93 25 -140 l19 -85 -33 -36 c-39 -44 -115 -154 -115 -168 0 -5 -5 -13 -11
-17 -13 -8 -6 73 15 196 17 97 83 317 91 308 2 -2 6 -28 9 -58z"/>
<path d="M1255 1990 c-113 -18 -196 -118 -196 -236 0 -137 125 -247 263 -231
185 22 273 244 152 386 -56 64 -135 94 -219 81z m102 -150 c51 -37 55 -116 7
-161 -19 -18 -37 -24 -71 -24 -38 0 -49 5 -74 33 -86 96 32 227 138 152z"/>
</g>
</svg>
