<svg width="247" height="36.77" viewBox="0 0 392.838 58.48"><path fill="#fff" d="M6.78 37.808c0 1.998-1.372 3.37-3.37 3.37S0 39.846 0 37.808c0-1.999 1.41-3.41 3.41-3.41 2.076 0 3.37 1.333 3.37 3.41zM32.111 17h5.878v23.982h-5.878l-9.405-14.029v14.029H16.83V17h5.877l9.405 14.029V17zm15.85 0h17.83v5.447H53.84v3.84h9.6v5.447h-9.6v3.801h11.952v5.447h-17.83V17zm25.215 0h19.985v5.447H86.11v18.535h-5.878V22.447h-7.054V17z"/><g xmlns="http://www.w3.org/2000/svg" fill="#fff"><path d="M131.727 13.616a5.344 5.344 0 0 0-5.339 5.338 5.345 5.345 0 0 0 5.34 5.338 5.345 5.345 0 0 0 5.338-5.338 5.345 5.345 0 0 0-5.339-5.338zm0 7.74a2.405 2.405 0 0 1-2.402-2.401c0-1.325 1.078-2.403 2.402-2.403s2.403 1.08 2.403 2.403a2.406 2.406 0 0 1-2.403 2.401z"/><path d="M145.079 29.25a1.495 1.495 0 0 0-.142-.182c-.693-16.817-10.81-27.302-12.182-28.649a1.47 1.47 0 0 0-2.056 0c-1.375 1.349-11.52 11.863-12.186 28.722-.029.037-.06.068-.085.109-.269.423-6.539 10.533-5.255 25.205a1.466 1.466 0 0 0 1.464 1.34c.607 0 1.16-.376 1.375-.957 1.05-2.827 3.133-7.311 5.052-9.589a22.958 22.958 0 0 0 2.134 3.753c.205.29.507.497.852.581 1.34.33 2.702.567 4.073.72.454 2.737 1.18 5.362 2.319 7.421a1.47 1.47 0 0 0 2.57 0c1.14-2.061 1.866-4.69 2.32-7.432a31.715 31.715 0 0 0 4.072-.708 1.47 1.47 0 0 0 .852-.58 22.904 22.904 0 0 0 2.152-3.794c1.927 2.263 4.03 6.785 5.087 9.63a1.471 1.471 0 0 0 1.572.942 1.466 1.466 0 0 0 1.267-1.326c1.284-14.673-4.988-24.784-5.255-25.206zm-29.035 18.387a42.618 42.618 0 0 1 2.673-12.136c.157 1.538.389 3.113.722 4.733.14.679.312 1.342.505 1.997-1.44 1.258-2.792 3.337-3.9 5.406zm15.683 5.437c-1.756-6.122-1.369-14.724-1.19-17.411.354-.132.788-.248 1.19-.248.38 0 .824.124 1.192.258.178 2.702.562 11.287-1.192 17.401zm6.437-6.216a27.77 27.77 0 0 1-2.437.421c.623-6.294.09-12.321.053-12.718a1.467 1.467 0 0 0-.746-1.148c-.171-.094-1.716-.935-3.307-.935-1.673 0-3.17.856-3.336.953-.407.24-.673.66-.716 1.13-.037.398-.57 6.431.054 12.729-.819-.11-1.633-.25-2.438-.43-1.437-2.165-2.437-4.59-2.975-7.215-3.927-19.126 5.923-32.144 9.412-36.041 3.49 3.897 13.34 16.915 9.413 36.041-.54 2.623-1.54 5.048-2.977 7.213zm5.357-4.664c.189-.644.357-1.294.494-1.96.34-1.66.575-3.27.731-4.844a42.574 42.574 0 0 1 2.718 12.247c-1.119-2.09-2.488-4.19-3.943-5.443z"/></g><path fill="#fff" d="M188.63 35.52v5.387H171V17.194h5.812V35.52h11.818zm23.034.582h-8.718l-1.705 4.805h-6.316l9.493-23.713h5.812l9.493 23.713h-6.354zm-6.82-5.386h4.921l-2.44-6.897zm37.06-13.522h5.813V31.22c0 6.16-4.418 9.88-10.268 9.88-6.006 0-10.268-3.952-10.268-9.88V17.194h5.812V31.22c0 2.79 1.666 4.495 4.456 4.495 2.867 0 4.456-1.666 4.456-4.495V17.194zm30.396 0h5.812v23.713H272.3l-9.299-13.872v13.872h-5.812V17.194h5.812l9.3 13.871V17.194zm34.31 17.087v5.967c-2.403.659-4.805.93-7.285.93-7.284 0-12.166-4.998-12.166-12.089 0-7.284 5.076-12.089 12.127-12.089 2.442 0 4.999.194 7.324.93v5.967c-1.899-.93-4.882-1.279-6.975-1.279-4.727 0-6.664 1.938-6.664 6.432 0 4.766 2.286 6.51 6.703 6.51 1.976 0 5.192-.31 6.936-1.279zm23.111-17.087h5.812v23.713h-5.812v-9.145h-8.524v9.145h-5.812V17.194h5.812v9.183h8.524v-9.183zm15.633 0h17.63v5.386h-11.818v3.797h9.493v5.385h-9.493v3.759h11.818v5.386h-17.63V17.194zm32.14 5.463v5.657h5.424c1.783 0 2.829-1.046 2.829-2.828s-1.046-2.829-2.829-2.829h-5.424zm8.795 9.493c1.085 1.472 2.17 2.945 3.294 4.378 1.085 1.434 2.17 2.906 3.255 4.379h-7.091c-1.395-1.86-2.751-3.72-4.107-5.58-1.356-1.82-2.751-3.68-4.146-5.54v11.12h-5.812V17.194h11.236c4.417 0 8.176 3.37 8.176 7.827 0 3.138-1.937 5.89-4.805 7.129z"/></svg>